<svg width="13" height="20" viewBox="0 0 13 20" fill="none" xmlns="http://www.w3.org/2000/svg">
<path d="M8.87735 8.2H4.12173C2.38375 8.2 1.51476 8.2 1.14718 7.7068C0.778682 7.2127 1.13526 6.526 1.84842 5.1535L3.12349 2.6983C3.55157 1.8739 3.76607 1.4617 4.17765 1.2313C4.59106 1 5.11356 1 6.15671 1H6.84421C7.88828 1 8.40986 1 8.82144 1.2304C9.23393 1.4617 9.44843 1.8739 9.87559 2.6974L11.1516 5.1544C11.8647 6.526 12.2213 7.2127 11.8528 7.7068C11.4852 8.2 10.6153 8.2 8.87827 8.2M6.49954 8.2V16.3M6.49954 16.3C5.68922 16.3 5.28314 16.3 4.96139 16.4854C4.88714 16.5284 4.81716 16.5781 4.75239 16.6339C4.47098 16.8751 4.34356 17.2522 4.0869 18.0073L3.74957 19M6.49954 16.3C7.30987 16.3 7.71595 16.3 8.03769 16.4854C8.11195 16.5284 8.18192 16.5781 8.24669 16.6339C8.52811 16.8751 8.65644 17.2522 8.91219 18.0073L9.24951 19M2.83291 19H10.1662M9.70784 8.2V10.9" stroke="black" stroke-width="2" stroke-linecap="round" stroke-linejoin="round"/>
</svg>
