<svg width="26" height="12" viewBox="0 0 26 12" fill="none" xmlns="http://www.w3.org/2000/svg">
<path d="M1 4C1 2.34315 2.34315 1 4 1H21.5714C22.1776 1 22.759 1.21071 23.1877 1.58579C23.6163 1.96086 23.8571 2.46957 23.8571 3V3.5C23.8571 3.63261 23.9173 3.75979 24.0245 3.85355C24.1317 3.94732 24.277 4 24.4286 4C24.5801 4 24.7255 4.05268 24.8326 4.14645C24.9398 4.24021 25 4.36739 25 4.5V7.5C25 7.63261 24.9398 7.75979 24.8326 7.85355C24.7255 7.94732 24.5801 8 24.4286 8C24.277 8 24.1317 8.05268 24.0245 8.14645C23.9173 8.24021 23.8571 8.36739 23.8571 8.5V9C23.8571 9.53043 23.6163 10.0391 23.1877 10.4142C22.759 10.7893 22.1776 11 21.5714 11H4C2.34315 11 1 9.65685 1 8V4Z" stroke="black" stroke-width="2" stroke-linecap="round" stroke-linejoin="round"/>
<rect x="3" y="3" width="5" height="6" rx="1" fill="#B44C01"/>
</svg>
