<svg width="9" height="17" viewBox="0 0 9 17" fill="none" xmlns="http://www.w3.org/2000/svg">
<path d="M2.66667 9.75C2.0312 10.1169 1.53454 10.6832 1.25374 11.3611C0.97293 12.0391 0.923665 12.7907 1.11358 13.4995C1.3035 14.2083 1.72198 14.8346 2.30413 15.2813C2.88628 15.728 3.59955 15.9701 4.33333 15.9701C5.06712 15.9701 5.78039 15.728 6.36254 15.2813C6.94469 14.8346 7.36317 14.2083 7.55309 13.4995C7.743 12.7907 7.69374 12.0391 7.41293 11.3611C7.13213 10.6832 6.63547 10.1169 6 9.75V2.66667C6 2.22464 5.82441 1.80072 5.51185 1.48816C5.19929 1.17559 4.77536 1 4.33333 1C3.89131 1 3.46738 1.17559 3.15482 1.48816C2.84226 1.80072 2.66667 2.22464 2.66667 2.66667V9.75Z" stroke="black" stroke-width="1.66667" stroke-linecap="round" stroke-linejoin="round"/>
<path d="M2.66699 6H6.00033" stroke="black" stroke-width="1.66667" stroke-linecap="round" stroke-linejoin="round"/>
</svg>
