<svg width="21" height="20" viewBox="0 0 21 20" fill="none" xmlns="http://www.w3.org/2000/svg">
<mask id="path-1-inside-1_103_2781" fill="white">
<path d="M21 1.33333V20H0V1.33333H3.9375V0H5.25V1.33333H15.75V0H17.0625V1.33333H21ZM1.3125 2.66667V5.33333H19.6875V2.66667H17.0625V4H15.75V2.66667H5.25V4H3.9375V2.66667H1.3125ZM19.6875 18.6667V6.66667H1.3125V18.6667H19.6875ZM14.4375 9.33333V16H13.125V10.9375C12.9404 11.0347 12.7285 11.125 12.4893 11.2083C12.25 11.2917 12.0244 11.3333 11.8125 11.3333V10C11.8945 10 12.0005 9.97917 12.1304 9.9375C12.2603 9.89583 12.3936 9.84375 12.5303 9.78125C12.667 9.71875 12.79 9.64583 12.8994 9.5625C13.0088 9.47917 13.084 9.40625 13.125 9.34375V9.33333H14.4375ZM10.5 11.3333C10.5 11.6042 10.4624 11.8472 10.3872 12.0625C10.312 12.2778 10.2061 12.4792 10.0693 12.6667C9.93262 12.8542 9.78223 13.0312 9.61816 13.1979C9.4541 13.3646 9.27979 13.5243 9.09521 13.6771C8.91064 13.8299 8.73633 13.9896 8.57227 14.1562C8.4082 14.3229 8.24756 14.4931 8.09033 14.6667H10.5V16H6.5625V15.625C6.5625 15.4931 6.55908 15.3611 6.55225 15.2292C6.54541 15.0972 6.55908 14.9653 6.59326 14.8333C6.62744 14.7014 6.66162 14.5764 6.6958 14.4583C6.771 14.2708 6.88379 14.0868 7.03418 13.9062C7.18457 13.7257 7.35547 13.5417 7.54688 13.3542C7.73828 13.1667 7.92627 12.9896 8.11084 12.8229C8.29541 12.6562 8.46973 12.4861 8.63379 12.3125C8.79785 12.1389 8.93115 11.9757 9.03369 11.8229C9.13623 11.6701 9.1875 11.5069 9.1875 11.3333C9.1875 11.1458 9.12256 10.9896 8.99268 10.8646C8.86279 10.7396 8.70898 10.6736 8.53125 10.6667C8.37402 10.6667 8.2373 10.7153 8.12109 10.8125C8.00488 10.9097 7.92627 11.0382 7.88525 11.1979L6.60352 10.9271C6.64453 10.6979 6.72314 10.4861 6.83936 10.2917C6.95557 10.0972 7.10596 9.93056 7.29053 9.79167C7.4751 9.65278 7.66992 9.54167 7.875 9.45833C8.08008 9.375 8.29883 9.33333 8.53125 9.33333C8.80469 9.33333 9.06104 9.38542 9.30029 9.48958C9.53955 9.59375 9.74805 9.73611 9.92578 9.91667C10.1035 10.0972 10.2437 10.309 10.3462 10.5521C10.4487 10.7951 10.5 11.0556 10.5 11.3333Z"/>
</mask>
<path d="M21 1.33333V20H0V1.33333H3.9375V0H5.25V1.33333H15.75V0H17.0625V1.33333H21ZM1.3125 2.66667V5.33333H19.6875V2.66667H17.0625V4H15.75V2.66667H5.25V4H3.9375V2.66667H1.3125ZM19.6875 18.6667V6.66667H1.3125V18.6667H19.6875ZM14.4375 9.33333V16H13.125V10.9375C12.9404 11.0347 12.7285 11.125 12.4893 11.2083C12.25 11.2917 12.0244 11.3333 11.8125 11.3333V10C11.8945 10 12.0005 9.97917 12.1304 9.9375C12.2603 9.89583 12.3936 9.84375 12.5303 9.78125C12.667 9.71875 12.79 9.64583 12.8994 9.5625C13.0088 9.47917 13.084 9.40625 13.125 9.34375V9.33333H14.4375ZM10.5 11.3333C10.5 11.6042 10.4624 11.8472 10.3872 12.0625C10.312 12.2778 10.2061 12.4792 10.0693 12.6667C9.93262 12.8542 9.78223 13.0312 9.61816 13.1979C9.4541 13.3646 9.27979 13.5243 9.09521 13.6771C8.91064 13.8299 8.73633 13.9896 8.57227 14.1562C8.4082 14.3229 8.24756 14.4931 8.09033 14.6667H10.5V16H6.5625V15.625C6.5625 15.4931 6.55908 15.3611 6.55225 15.2292C6.54541 15.0972 6.55908 14.9653 6.59326 14.8333C6.62744 14.7014 6.66162 14.5764 6.6958 14.4583C6.771 14.2708 6.88379 14.0868 7.03418 13.9062C7.18457 13.7257 7.35547 13.5417 7.54688 13.3542C7.73828 13.1667 7.92627 12.9896 8.11084 12.8229C8.29541 12.6562 8.46973 12.4861 8.63379 12.3125C8.79785 12.1389 8.93115 11.9757 9.03369 11.8229C9.13623 11.6701 9.1875 11.5069 9.1875 11.3333C9.1875 11.1458 9.12256 10.9896 8.99268 10.8646C8.86279 10.7396 8.70898 10.6736 8.53125 10.6667C8.37402 10.6667 8.2373 10.7153 8.12109 10.8125C8.00488 10.9097 7.92627 11.0382 7.88525 11.1979L6.60352 10.9271C6.64453 10.6979 6.72314 10.4861 6.83936 10.2917C6.95557 10.0972 7.10596 9.93056 7.29053 9.79167C7.4751 9.65278 7.66992 9.54167 7.875 9.45833C8.08008 9.375 8.29883 9.33333 8.53125 9.33333C8.80469 9.33333 9.06104 9.38542 9.30029 9.48958C9.53955 9.59375 9.74805 9.73611 9.92578 9.91667C10.1035 10.0972 10.2437 10.309 10.3462 10.5521C10.4487 10.7951 10.5 11.0556 10.5 11.3333Z" fill="black"/>
<path d="M21 1.33333H24V-1.66667H21V1.33333ZM21 20V23H24V20H21ZM0 20H-3V23H0V20ZM0 1.33333V-1.66667H-3V1.33333H0ZM3.9375 1.33333V4.33333H6.9375V1.33333H3.9375ZM3.9375 0V-3H0.9375V0H3.9375ZM5.25 0H8.25V-3H5.25V0ZM5.25 1.33333H2.25V4.33333H5.25V1.33333ZM15.75 1.33333V4.33333H18.75V1.33333H15.75ZM15.75 0V-3H12.75V0H15.75ZM17.0625 0H20.0625V-3H17.0625V0ZM17.0625 1.33333H14.0625V4.33333H17.0625V1.33333ZM1.3125 2.66667V-0.333333H-1.6875V2.66667H1.3125ZM1.3125 5.33333H-1.6875V8.33333H1.3125V5.33333ZM19.6875 5.33333V8.33333H22.6875V5.33333H19.6875ZM19.6875 2.66667H22.6875V-0.333333H19.6875V2.66667ZM17.0625 2.66667V-0.333333H14.0625V2.66667H17.0625ZM17.0625 4V7H20.0625V4H17.0625ZM15.75 4H12.75V7H15.75V4ZM15.75 2.66667H18.75V-0.333333H15.75V2.66667ZM5.25 2.66667V-0.333333H2.25V2.66667H5.25ZM5.25 4V7H8.25V4H5.25ZM3.9375 4H0.9375V7H3.9375V4ZM3.9375 2.66667H6.9375V-0.333333H3.9375V2.66667ZM19.6875 18.6667V21.6667H22.6875V18.6667H19.6875ZM19.6875 6.66667H22.6875V3.66667H19.6875V6.66667ZM1.3125 6.66667V3.66667H-1.6875V6.66667H1.3125ZM1.3125 18.6667H-1.6875V21.6667H1.3125V18.6667ZM14.4375 9.33333H17.4375V6.33333H14.4375V9.33333ZM14.4375 16V19H17.4375V16H14.4375ZM13.125 16H10.125V19H13.125V16ZM13.125 10.9375H16.125V5.9665L11.7269 8.28322L13.125 10.9375ZM11.8125 11.3333H8.8125V14.3333H11.8125V11.3333ZM11.8125 10V7H8.8125V10H11.8125ZM13.125 9.34375L15.6331 10.9897L16.125 10.2402V9.34375H13.125ZM13.125 9.33333V6.33333H10.125V9.33333H13.125ZM8.09033 14.6667L5.86668 12.6529L1.32606 17.6667H8.09033V14.6667ZM10.5 14.6667H13.5V11.6667H10.5V14.6667ZM10.5 16V19H13.5V16H10.5ZM6.5625 16H3.5625V19H6.5625V16ZM6.6958 14.4583L3.91137 13.3417L3.85572 13.4804L3.81415 13.624L6.6958 14.4583ZM8.53125 10.6667L8.64838 7.66895L8.58984 7.66667H8.53125V10.6667ZM7.88525 11.1979L7.26504 14.1331L10.0763 14.7271L10.791 11.9441L7.88525 11.1979ZM6.60352 10.9271L3.65044 10.3986L3.13811 13.2611L5.98331 13.8623L6.60352 10.9271ZM18 1.33333V20H24V1.33333H18ZM21 17H0V23H21V17ZM3 20V1.33333H-3V20H3ZM0 4.33333H3.9375V-1.66667H0V4.33333ZM6.9375 1.33333V0H0.9375V1.33333H6.9375ZM3.9375 3H5.25V-3H3.9375V3ZM2.25 0V1.33333H8.25V0H2.25ZM5.25 4.33333H15.75V-1.66667H5.25V4.33333ZM18.75 1.33333V0H12.75V1.33333H18.75ZM15.75 3H17.0625V-3H15.75V3ZM14.0625 0V1.33333H20.0625V0H14.0625ZM17.0625 4.33333H21V-1.66667H17.0625V4.33333ZM-1.6875 2.66667V5.33333H4.3125V2.66667H-1.6875ZM1.3125 8.33333H19.6875V2.33333H1.3125V8.33333ZM22.6875 5.33333V2.66667H16.6875V5.33333H22.6875ZM19.6875 -0.333333H17.0625V5.66667H19.6875V-0.333333ZM14.0625 2.66667V4H20.0625V2.66667H14.0625ZM17.0625 1H15.75V7H17.0625V1ZM18.75 4V2.66667H12.75V4H18.75ZM15.75 -0.333333H5.25V5.66667H15.75V-0.333333ZM2.25 2.66667V4H8.25V2.66667H2.25ZM5.25 1H3.9375V7H5.25V1ZM6.9375 4V2.66667H0.9375V4H6.9375ZM3.9375 -0.333333H1.3125V5.66667H3.9375V-0.333333ZM22.6875 18.6667V6.66667H16.6875V18.6667H22.6875ZM19.6875 3.66667H1.3125V9.66667H19.6875V3.66667ZM-1.6875 6.66667V18.6667H4.3125V6.66667H-1.6875ZM1.3125 21.6667H19.6875V15.6667H1.3125V21.6667ZM11.4375 9.33333V16H17.4375V9.33333H11.4375ZM14.4375 13H13.125V19H14.4375V13ZM16.125 16V10.9375H10.125V16H16.125ZM11.7269 8.28322C11.6993 8.29774 11.6292 8.33113 11.5025 8.37526L13.476 14.0414C13.8278 13.9189 14.1816 13.7717 14.5231 13.5918L11.7269 8.28322ZM11.5025 8.37526C11.5202 8.36909 11.6301 8.33333 11.8125 8.33333V14.3333C12.4188 14.3333 12.9798 14.2142 13.476 14.0414L11.5025 8.37526ZM14.8125 11.3333V10H8.8125V11.3333H14.8125ZM11.8125 13C12.3436 13 12.7894 12.8767 13.0468 12.7941L11.214 7.08089C11.2325 7.07496 11.2885 7.05769 11.3747 7.04074C11.4564 7.02468 11.6094 7 11.8125 7V13ZM13.0468 12.7941C13.3001 12.7128 13.5439 12.6165 13.7776 12.5097L11.283 7.05283C11.2432 7.07102 11.2204 7.07882 11.214 7.08089L13.0468 12.7941ZM13.7776 12.5097C14.098 12.3632 14.4156 12.1788 14.7175 11.9488L11.0813 7.17621C11.1645 7.11282 11.2359 7.07434 11.283 7.05283L13.7776 12.5097ZM14.7175 11.9488C14.91 11.8022 15.3098 11.4824 15.6331 10.9897L10.6169 7.69778C10.7545 7.488 10.8866 7.35247 10.9494 7.29161C11.0188 7.22431 11.0687 7.18577 11.0813 7.17621L14.7175 11.9488ZM16.125 9.34375V9.33333H10.125V9.34375H16.125ZM13.125 12.3333H14.4375V6.33333H13.125V12.3333ZM7.5 11.3333C7.5 11.3289 7.5005 11.2293 7.55501 11.0732L13.2194 13.0518C13.4243 12.4652 13.5 11.8794 13.5 11.3333H7.5ZM7.55501 11.0732C7.57865 11.0055 7.61161 10.9454 7.64531 10.8992L12.4934 14.4342C12.8005 14.013 13.0454 13.55 13.2194 13.0518L7.55501 11.0732ZM7.64531 10.8992C7.59621 10.9665 7.54157 11.031 7.48021 11.0934L11.7561 15.3025C12.0229 15.0315 12.269 14.7418 12.4934 14.4342L7.64531 10.8992ZM7.48021 11.0934C7.38932 11.1857 7.29031 11.2767 7.18229 11.3661L11.0081 15.9881C11.2693 15.7719 11.5189 15.5435 11.7561 15.3025L7.48021 11.0934ZM7.18229 11.3661C6.92117 11.5822 6.67155 11.8107 6.43431 12.0517L10.7102 16.2608C10.8011 16.1685 10.9001 16.0775 11.0081 15.9881L7.18229 11.3661ZM6.43431 12.0517C6.24101 12.2481 6.0518 12.4485 5.86668 12.6529L10.314 16.6805C10.4433 16.5376 10.5754 16.3978 10.7102 16.2608L6.43431 12.0517ZM8.09033 17.6667H10.5V11.6667H8.09033V17.6667ZM7.5 14.6667V16H13.5V14.6667H7.5ZM10.5 13H6.5625V19H10.5V13ZM9.5625 16V15.625H3.5625V16H9.5625ZM9.5625 15.625C9.5625 15.4412 9.55774 15.2575 9.54823 15.0739L3.55626 15.3844C3.56043 15.4647 3.5625 15.5449 3.5625 15.625H9.5625ZM9.54823 15.0739C9.55771 15.257 9.53747 15.431 9.4974 15.5856L3.68912 14.081C3.5807 14.4996 3.53311 14.9374 3.55626 15.3844L9.54823 15.0739ZM9.4974 15.5856C9.52523 15.4782 9.55195 15.3807 9.57746 15.2926L3.81415 13.624C3.77129 13.7721 3.72965 13.9246 3.68912 14.081L9.4974 15.5856ZM9.48023 15.575C9.42137 15.7218 9.35768 15.8042 9.3393 15.8263L4.72906 11.9862C4.4099 12.3694 4.12062 12.8199 3.91137 13.3417L9.48023 15.575ZM9.3393 15.8263C9.41667 15.7334 9.51731 15.6235 9.64621 15.4972L5.44754 11.2111C5.19362 11.4598 4.95247 11.718 4.72906 11.9862L9.3393 15.8263ZM9.64621 15.4972C9.81081 15.336 9.9692 15.1869 10.1214 15.0495L6.10026 10.5964C5.88333 10.7922 5.66576 10.9973 5.44754 11.2111L9.64621 15.4972ZM10.1214 15.0495C10.3624 14.8319 10.5936 14.6065 10.8142 14.373L6.45335 10.252C6.34587 10.3657 6.22844 10.4806 6.10026 10.5964L10.1214 15.0495ZM10.8142 14.373C11.0607 14.1122 11.307 13.8191 11.5247 13.4948L6.54272 10.1511C6.55059 10.1393 6.54901 10.143 6.53339 10.1621C6.51798 10.1809 6.49219 10.2109 6.45335 10.252L10.8142 14.373ZM11.5247 13.4948C11.9381 12.8787 12.1875 12.1388 12.1875 11.3333H6.1875C6.1875 10.8751 6.33433 10.4616 6.54272 10.1511L11.5247 13.4948ZM12.1875 11.3333C12.1875 10.367 11.8165 9.41856 11.073 8.70302L6.91238 13.0261C6.70009 12.8218 6.5044 12.5538 6.36854 12.2269C6.23374 11.9026 6.1875 11.592 6.1875 11.3333H12.1875ZM11.073 8.70302C10.4212 8.0757 9.5717 7.70503 8.64838 7.66895L8.41412 13.6644C8.15937 13.6544 7.87861 13.5991 7.59733 13.4784C7.31667 13.3581 7.08808 13.1952 6.91238 13.0261L11.073 8.70302ZM8.53125 7.66667C7.69908 7.66667 6.87384 7.94455 6.19611 8.51154L10.0461 13.1135C9.84337 13.283 9.59756 13.4296 9.31582 13.5298C9.0356 13.6294 8.76645 13.6667 8.53125 13.6667V7.66667ZM6.19611 8.51154C5.55538 9.04757 5.16217 9.7405 4.97953 10.4517L10.791 11.9441C10.6904 12.3359 10.4544 12.7719 10.0461 13.1135L6.19611 8.51154ZM8.50546 8.26273L7.22373 7.99189L5.98331 13.8623L7.26504 14.1331L8.50546 8.26273ZM9.55659 11.4556C9.53553 11.5733 9.48947 11.7053 9.41449 11.8307L4.26422 8.75262C3.95682 9.26696 3.75353 9.82255 3.65044 10.3986L9.55659 11.4556ZM9.41449 11.8307C9.32756 11.9762 9.21373 12.099 9.09436 12.1888L5.4867 7.39455C4.99818 7.76215 4.58357 8.21828 4.26422 8.75262L9.41449 11.8307ZM9.09436 12.1888C9.08062 12.1991 9.04995 12.2191 9.00437 12.2376L6.74563 6.67903C6.2899 6.86422 5.86958 7.10643 5.4867 7.39455L9.09436 12.1888ZM9.00437 12.2376C8.833 12.3073 8.66635 12.3333 8.53125 12.3333V6.33333C7.9313 6.33333 7.32716 6.44273 6.74563 6.67903L9.00437 12.2376ZM8.53125 12.3333C8.41273 12.3333 8.25932 12.3084 8.10275 12.2402L10.4978 6.73897C9.86275 6.46247 9.19665 6.33333 8.53125 6.33333V12.3333ZM8.10275 12.2402C8.00085 12.1958 7.88746 12.1224 7.78782 12.0212L12.0637 7.81212C11.6086 7.34979 11.0782 6.99166 10.4978 6.73897L8.10275 12.2402ZM7.78782 12.0212C7.68845 11.9203 7.62087 11.8101 7.5821 11.7182L13.1103 9.38598C12.8664 8.80798 12.5186 8.27418 12.0637 7.81212L7.78782 12.0212ZM7.5821 11.7182C7.52077 11.5728 7.5 11.4345 7.5 11.3333H13.5C13.5 10.6766 13.3767 10.0175 13.1103 9.38598L7.5821 11.7182Z" fill="black" mask="url(#path-1-inside-1_103_2781)"/>
</svg>
