<svg width="25" height="25" viewBox="0 0 25 25" fill="none" xmlns="http://www.w3.org/2000/svg">
<path d="M14.6396 17.8411H22.4095" stroke="black" stroke-width="2" stroke-linecap="round"/>
<path d="M23.0204 10.3333C19.7551 10.6686 19.4963 10.8061 16.6721 10.8126" stroke="black" stroke-width="2" stroke-linecap="round"/>
<path d="M2.76664 14.3492C4.78252 14.2182 5.7613 13.605 7.21902 11.4683C5.49999 11.7963 4.53305 12.0175 2.76664 12.8651C2.59501 13.4448 2.64682 13.7696 2.76664 14.3492Z" fill="black"/>
<path d="M22.3221 6.40428C17.9647 7.18716 15.6527 8.02935 11.8459 10.5075M11.8459 10.5075C7.10375 10.8171 4.66397 11.3522 1.02051 13.4757C1.09581 16.3718 1.35832 17.7028 3.37765 18.0154M11.8459 10.5075C9.49428 7.98661 7.99112 6.61094 3.72686 4.48364" stroke="black" stroke-width="2" stroke-linecap="round"/>
<circle cx="9.2269" cy="17.4918" r="2.88095" stroke="black" stroke-width="2" stroke-linecap="round"/>
</svg>
