<svg width="23" height="29" viewBox="0 0 23 29" fill="none" xmlns="http://www.w3.org/2000/svg">
<path d="M5.46195 27.8536C5.30247 27.9845 5.13609 28.0893 4.9628 28.1679C4.7895 28.2464 4.59707 28.2857 4.3855 28.2857C4.17394 28.2857 3.96131 28.2396 3.74761 28.1474C3.53392 28.0552 3.34787 27.9311 3.18946 27.775C2.09973 26.6226 1.29545 25.4503 0.776635 24.2581C0.257817 23.0659 -0.00105989 21.8025 3.2612e-06 20.4679C3.2612e-06 19.4988 0.146187 18.4643 0.438553 17.3643C0.73092 16.2643 1.23592 14.8762 1.95354 13.2C2.56486 11.7071 2.99012 10.5679 3.22933 9.78214C3.46854 8.99643 3.58814 8.26309 3.58814 7.58214C3.58814 6.69166 3.3888 5.84728 2.99012 5.049C2.59144 4.25071 1.96683 3.47128 1.11631 2.71071C0.930261 2.55357 0.797367 2.37705 0.71763 2.18114C0.637894 1.98524 0.598026 1.782 0.598026 1.57143C0.598026 1.36086 0.637894 1.16443 0.71763 0.982143C0.797367 0.799857 0.903682 0.629619 1.03658 0.471428C1.19605 0.314286 1.37572 0.196429 1.57559 0.117857C1.77547 0.0392858 1.98119 0 2.19275 0C2.40432 0 2.60366 0.0392858 2.79078 0.117857C2.97789 0.196429 3.15065 0.301191 3.30906 0.432143C4.47853 1.50595 5.34925 2.62586 5.92123 3.79186C6.4932 4.95786 6.77866 6.20819 6.77759 7.54286C6.77759 8.45952 6.6447 9.42228 6.37891 10.4311C6.11312 11.44 5.63471 12.7558 4.94366 14.3786C4.27919 15.95 3.82735 17.1548 3.58814 17.9929C3.34893 18.8309 3.22933 19.6298 3.22933 20.3893C3.22933 21.3059 3.42229 22.2032 3.80821 23.0811C4.19414 23.959 4.78525 24.8165 5.58155 25.6536C5.71444 25.8107 5.81438 25.9809 5.88136 26.1643C5.94834 26.3476 5.98129 26.5309 5.98023 26.7143C5.98023 26.9238 5.94036 27.1333 5.86063 27.3428C5.78089 27.5524 5.648 27.7226 5.46195 27.8536Z" fill="#FF2E00"/>
<path d="M13.4619 27.8536C13.3025 27.9845 13.1361 28.0893 12.9628 28.1679C12.7895 28.2464 12.5971 28.2857 12.3855 28.2857C12.1739 28.2857 11.9613 28.2396 11.7476 28.1474C11.5339 28.0552 11.3479 27.9311 11.1895 27.775C10.0997 26.6226 9.29545 25.4503 8.77664 24.2581C8.25782 23.0659 7.99894 21.8025 8 20.4679C8 19.4988 8.14619 18.4643 8.43855 17.3643C8.73092 16.2643 9.23592 14.8762 9.95354 13.2C10.5649 11.7071 10.9901 10.5679 11.2293 9.78214C11.4685 8.99643 11.5881 8.26309 11.5881 7.58214C11.5881 6.69166 11.3888 5.84728 10.9901 5.049C10.5914 4.25071 9.96683 3.47128 9.11631 2.71071C8.93026 2.55357 8.79737 2.37705 8.71763 2.18114C8.63789 1.98524 8.59803 1.782 8.59803 1.57143C8.59803 1.36086 8.63789 1.16443 8.71763 0.982143C8.79737 0.799857 8.90368 0.629619 9.03658 0.471428C9.19605 0.314286 9.37572 0.196429 9.57559 0.117857C9.77547 0.0392858 9.98119 0 10.1928 0C10.4043 0 10.6037 0.0392858 10.7908 0.117857C10.9779 0.196429 11.1507 0.301191 11.3091 0.432143C12.4785 1.50595 13.3493 2.62586 13.9212 3.79186C14.4932 4.95786 14.7787 6.20819 14.7776 7.54286C14.7776 8.45952 14.6447 9.42228 14.3789 10.4311C14.1131 11.44 13.6347 12.7558 12.9437 14.3786C12.2792 15.95 11.8273 17.1548 11.5881 17.9929C11.3489 18.8309 11.2293 19.6298 11.2293 20.3893C11.2293 21.3059 11.4223 22.2032 11.8082 23.0811C12.1941 23.959 12.7852 24.8165 13.5815 25.6536C13.7144 25.8107 13.8144 25.9809 13.8814 26.1643C13.9483 26.3476 13.9813 26.5309 13.9802 26.7143C13.9802 26.9238 13.9404 27.1333 13.8606 27.3428C13.7809 27.5524 13.648 27.7226 13.4619 27.8536Z" fill="#FF2E00"/>
<path d="M21.4619 27.8536C21.3025 27.9845 21.1361 28.0893 20.9628 28.1679C20.7895 28.2464 20.5971 28.2857 20.3855 28.2857C20.1739 28.2857 19.9613 28.2396 19.7476 28.1474C19.5339 28.0552 19.3479 27.9311 19.1895 27.775C18.0997 26.6226 17.2955 25.4503 16.7766 24.2581C16.2578 23.0659 15.9989 21.8025 16 20.4679C16 19.4988 16.1462 18.4643 16.4386 17.3643C16.7309 16.2643 17.2359 14.8762 17.9535 13.2C18.5649 11.7071 18.9901 10.5679 19.2293 9.78214C19.4685 8.99643 19.5881 8.26309 19.5881 7.58214C19.5881 6.69166 19.3888 5.84728 18.9901 5.049C18.5914 4.25071 17.9668 3.47128 17.1163 2.71071C16.9303 2.55357 16.7974 2.37705 16.7176 2.18114C16.6379 1.98524 16.598 1.782 16.598 1.57143C16.598 1.36086 16.6379 1.16443 16.7176 0.982143C16.7974 0.799857 16.9037 0.629619 17.0366 0.471428C17.196 0.314286 17.3757 0.196429 17.5756 0.117857C17.7755 0.0392858 17.9812 0 18.1928 0C18.4043 0 18.6037 0.0392858 18.7908 0.117857C18.9779 0.196429 19.1507 0.301191 19.3091 0.432143C20.4785 1.50595 21.3493 2.62586 21.9212 3.79186C22.4932 4.95786 22.7787 6.20819 22.7776 7.54286C22.7776 8.45952 22.6447 9.42228 22.3789 10.4311C22.1131 11.44 21.6347 12.7558 20.9437 14.3786C20.2792 15.95 19.8273 17.1548 19.5881 17.9929C19.3489 18.8309 19.2293 19.6298 19.2293 20.3893C19.2293 21.3059 19.4223 22.2032 19.8082 23.0811C20.1941 23.959 20.7852 24.8165 21.5815 25.6536C21.7144 25.8107 21.8144 25.9809 21.8814 26.1643C21.9483 26.3476 21.9813 26.5309 21.9802 26.7143C21.9802 26.9238 21.9404 27.1333 21.8606 27.3428C21.7809 27.5524 21.648 27.7226 21.4619 27.8536Z" fill="white"/>
</svg>
