<svg width="22" height="29" viewBox="0 0 22 29" fill="none" xmlns="http://www.w3.org/2000/svg">
<path d="M13.0429 27.8536C12.8857 27.9845 12.7223 28.0893 12.5526 28.1679C12.3829 28.2464 12.1927 28.2857 11.9821 28.2857C11.7716 28.2857 11.562 28.2396 11.3536 28.1474C11.1451 28.0553 10.9618 27.9311 10.8036 27.775C9.72976 26.6226 8.93724 25.4441 8.426 24.2393C7.91476 23.0345 7.66019 21.7643 7.66229 20.4286C7.66229 19.4595 7.80633 18.4381 8.09443 17.3643C8.38252 16.2905 8.88014 14.9024 9.58729 13.2C10.1897 11.7072 10.6087 10.5616 10.8444 9.7633C11.0801 8.96502 11.198 8.22487 11.198 7.54287C11.198 6.6524 11.0016 5.82111 10.6087 5.04902C10.2159 4.27692 9.60038 3.49749 8.76229 2.71073C8.60514 2.55359 8.481 2.37026 8.38986 2.16073C8.29871 1.95121 8.25262 1.74168 8.25157 1.53216C8.25053 1.32264 8.28981 1.13302 8.36943 0.963303C8.44905 0.793589 8.55381 0.629636 8.68372 0.471446C8.84086 0.314303 9.01738 0.196446 9.21329 0.117875C9.40919 0.0393034 9.61191 1.76566e-05 9.82143 1.76566e-05C10.031 1.76566e-05 10.2274 0.0393034 10.4107 0.117875C10.594 0.196446 10.7643 0.301208 10.9214 0.432161C12.0738 1.50597 12.9313 2.63216 13.4939 3.81073C14.0564 4.9893 14.3382 6.23335 14.3393 7.54287C14.3393 8.45954 14.2015 9.4223 13.926 10.4312C13.6505 11.44 13.1728 12.7558 12.4929 14.3786C11.8381 15.95 11.3929 17.1548 11.1571 17.9929C10.9214 18.831 10.8036 19.6298 10.8036 20.3893C10.8036 21.306 10.9937 22.1902 11.374 23.0419C11.7543 23.8936 12.3368 24.7511 13.1214 25.6143C13.2524 25.7714 13.3571 25.9417 13.4357 26.125C13.5143 26.3083 13.5536 26.5048 13.5536 26.7143C13.5536 26.9238 13.5143 27.1271 13.4357 27.324C13.3571 27.521 13.2262 27.6975 13.0429 27.8536ZM20.7036 27.8536C20.5464 27.9845 20.383 28.0893 20.2133 28.1679C20.0436 28.2464 19.8534 28.2857 19.6429 28.2857C19.4323 28.2857 19.2228 28.2396 19.0143 28.1474C18.8058 28.0553 18.6225 27.9311 18.4643 27.775C17.3905 26.6226 16.598 25.4503 16.0867 24.2582C15.5755 23.066 15.3204 21.8025 15.3214 20.4679C15.3214 19.4988 15.4655 18.4643 15.7536 17.3643C16.0417 16.2643 16.5393 14.8762 17.2464 13.2C17.8488 11.7072 18.2679 10.5679 18.5036 9.78216C18.7393 8.99644 18.8571 8.26311 18.8571 7.58216C18.8571 6.69168 18.6607 5.8473 18.2679 5.04902C17.875 4.25073 17.2595 3.4713 16.4214 2.71073C16.2643 2.55359 16.1464 2.37706 16.0679 2.18116C15.9893 1.98526 15.95 1.78202 15.95 1.57145C15.95 1.36087 15.983 1.17073 16.049 1.00102C16.115 0.831303 16.213 0.667875 16.3429 0.510732C16.5 0.353589 16.6833 0.228922 16.8929 0.136732C17.1024 0.0445413 17.3119 -0.00102996 17.5214 1.76566e-05C17.731 0.00106528 17.9211 0.0403511 18.0919 0.117875C18.2626 0.195399 18.426 0.300161 18.5821 0.432161C19.7345 1.50597 20.5925 2.63216 21.1561 3.81073C21.7198 4.9893 22.001 6.23335 22 7.54287C22 8.45954 21.8628 9.4223 21.5883 10.4312C21.3138 11.44 20.8356 12.7689 20.1536 14.4179C19.4988 15.9893 19.0536 17.1941 18.8179 18.0322C18.5821 18.8703 18.4643 19.656 18.4643 20.3893C18.4643 21.306 18.6607 22.2033 19.0536 23.0812C19.4464 23.9591 20.0357 24.8165 20.8214 25.6536C20.9524 25.8107 21.0503 25.981 21.1153 26.1643C21.1802 26.3476 21.2132 26.531 21.2143 26.7143C21.2143 26.9238 21.175 27.1333 21.0964 27.3429C21.0179 27.5524 20.8869 27.7226 20.7036 27.8536ZM5.38215 27.8536C5.225 27.9845 5.06105 28.0893 4.89029 28.1679C4.71953 28.2464 4.52991 28.2857 4.32143 28.2857C4.11295 28.2857 3.90343 28.2396 3.69286 28.1474C3.48229 28.0553 3.29895 27.9311 3.14286 27.775C2.06905 26.6226 1.27653 25.4503 0.765289 24.2582C0.254051 23.066 -0.00104441 21.8025 3.21355e-06 20.4679C3.21355e-06 19.4988 0.144051 18.4643 0.432146 17.3643C0.720241 16.2643 1.21786 14.8762 1.925 13.2C2.52738 11.7072 2.94643 10.5679 3.18215 9.78216C3.41786 8.99644 3.53572 8.26311 3.53572 7.58216C3.53572 6.69168 3.33929 5.8473 2.94643 5.04902C2.55357 4.25073 1.9381 3.4713 1.1 2.71073C0.916669 2.55359 0.785717 2.37706 0.707146 2.18116C0.628574 1.98526 0.589289 1.78202 0.589289 1.57145C0.589289 1.36087 0.628574 1.16445 0.707146 0.98216C0.785717 0.799875 0.890479 0.629636 1.02143 0.471446C1.17857 0.314303 1.35562 0.196446 1.55257 0.117875C1.74953 0.0393034 1.95224 1.76566e-05 2.16072 1.76566e-05C2.36919 1.76566e-05 2.56562 0.0393034 2.75 0.117875C2.93438 0.196446 3.10462 0.301208 3.26072 0.432161C4.4131 1.50597 5.2711 2.62587 5.83472 3.79187C6.39834 4.95787 6.67962 6.20821 6.67857 7.54287C6.67857 8.45954 6.54762 9.4223 6.28572 10.4312C6.02381 11.44 5.55238 12.7558 4.87143 14.3786C4.21667 15.95 3.77143 17.1548 3.53572 17.9929C3.3 18.831 3.18215 19.6298 3.18215 20.3893C3.18215 21.306 3.37229 22.2033 3.75257 23.0812C4.13286 23.9591 4.71534 24.8165 5.5 25.6536C5.63095 25.8107 5.72943 25.981 5.79543 26.1643C5.86143 26.3476 5.89391 26.531 5.89286 26.7143C5.89286 26.9238 5.85357 27.1333 5.775 27.3429C5.69643 27.5524 5.56548 27.7226 5.38215 27.8536Z" fill="white"/>
</svg>
