<svg width="25" height="24" viewBox="0 0 25 24" fill="none" xmlns="http://www.w3.org/2000/svg">
<path d="M24.5671 14.1665C24.2903 13.0877 23.7753 12.0916 23.0633 11.2578C22.3513 10.4241 21.4622 9.77586 20.467 9.36509C19.4718 8.95432 18.3982 8.79242 17.3323 8.89234C16.2664 8.99227 15.2377 9.35125 14.3286 9.94053L16.201 2.13952C16.2475 1.9457 16.2344 1.74156 16.1637 1.5559C16.093 1.37024 15.9682 1.21244 15.8069 1.10479C15.0296 0.592611 14.1615 0.248831 13.2542 0.0939004C12.3469 -0.0610297 11.4191 -0.0239434 10.5258 0.202953C9.6326 0.429849 8.79223 0.841918 8.05473 1.41464C7.31723 1.98736 6.69767 2.70903 6.23293 3.53671C5.76818 4.36439 5.46774 5.28116 5.34949 6.23248C5.23123 7.18379 5.29758 8.15021 5.54458 9.07422C5.79158 9.99823 6.21418 10.861 6.78725 11.6111C7.36031 12.3612 8.07213 12.9833 8.88033 13.4405L1.46937 15.6494C1.28526 15.7041 1.12226 15.8178 1.00337 15.9744C0.884483 16.1309 0.815712 16.3225 0.806761 16.522C0.736423 18.1503 1.20117 19.7548 2.12404 21.0699C3.04692 22.3849 4.37255 23.3317 5.88145 23.7532C6.46342 23.9163 7.06333 23.9993 7.66592 24C8.58416 23.9975 9.49258 23.8027 10.3374 23.4271C11.1821 23.0516 11.9461 22.503 12.584 21.8138C13.2219 21.1246 13.7208 20.3089 14.0511 19.4148C14.3813 18.5208 14.5363 17.5667 14.5068 16.6091L20.0453 22.2023C20.1831 22.3414 20.3592 22.4317 20.5488 22.4606C20.7385 22.4895 20.932 22.4554 21.1021 22.3633C22.4879 21.613 23.5867 20.3916 24.2168 18.9011C24.8469 17.4105 24.9704 15.7402 24.5671 14.1665ZM10.7436 13.332C10.7436 12.9548 10.8508 12.586 11.0517 12.2724C11.2525 11.9587 11.538 11.7142 11.872 11.5699C12.206 11.4255 12.5736 11.3877 12.9281 11.4613C13.2827 11.5349 13.6084 11.7166 13.864 11.9833C14.1197 12.2501 14.2938 12.5899 14.3643 12.9599C14.4348 13.3299 14.3986 13.7134 14.2603 14.0619C14.1219 14.4104 13.8876 14.7083 13.5871 14.9179C13.2865 15.1275 12.9331 15.2394 12.5715 15.2394C12.0867 15.2394 11.6218 15.0384 11.279 14.6807C10.9362 14.323 10.7436 13.8379 10.7436 13.332ZM7.08785 7.13317C7.08757 6.24935 7.30131 5.37978 7.70924 4.60522C8.11717 3.83065 8.70606 3.17621 9.42123 2.70265C10.1364 2.2291 10.9546 1.95179 11.8 1.89648C12.6453 1.84117 13.4904 2.00965 14.2566 2.38628L12.5453 9.51734C11.8904 9.52247 11.2489 9.71103 10.6878 10.0633C10.1267 10.4156 9.66662 10.9187 9.35558 11.52C8.65745 11.0436 8.08437 10.3929 7.68836 9.62681C7.29235 8.86073 7.08594 8.00359 7.08785 7.13317ZM10.1724 21.3869C9.43906 21.8291 8.61052 22.0707 7.76373 22.0894C6.91694 22.1081 6.07936 21.9032 5.32876 21.4937C4.57816 21.0843 3.93888 20.4835 3.47028 19.7473C3.00169 19.0111 2.71896 18.1633 2.64836 17.2826L9.42413 15.2632C9.74628 15.8358 10.2061 16.3108 10.7581 16.6411C11.3101 16.9715 11.9352 17.1457 12.5715 17.1467H12.6755C12.6295 18.015 12.3765 18.8576 11.9394 19.5981C11.5023 20.3386 10.8949 20.9534 10.1724 21.3869ZM22.3016 18.6451C21.9319 19.3145 21.4247 19.8902 20.8165 20.3308L15.7532 15.2179C16.0772 14.6241 16.2419 13.9501 16.2301 13.2669C16.2182 12.5837 16.0302 11.9165 15.6858 11.3353C16.6525 10.8261 17.7509 10.6562 18.8176 10.851C19.8843 11.0458 20.8622 11.5948 21.6057 12.4163C22.3492 13.2378 22.8186 14.2879 22.944 15.4102C23.0694 16.5326 22.8441 17.6672 22.3016 18.6451Z" fill="white"/>
</svg>
