<svg width="20" height="20" viewBox="0 0 20 20" fill="none" xmlns="http://www.w3.org/2000/svg">
<path d="M9 2.33333V1C9 0.734784 9.10536 0.48043 9.29289 0.292893C9.48043 0.105357 9.73478 0 10 0C10.2652 0 10.5196 0.105357 10.7071 0.292893C10.8946 0.48043 11 0.734784 11 1V2.33333C11 2.59855 10.8946 2.8529 10.7071 3.04044C10.5196 3.22798 10.2652 3.33333 10 3.33333C9.73478 3.33333 9.48043 3.22798 9.29289 3.04044C9.10536 2.8529 9 2.59855 9 2.33333ZM15.6667 10C15.6667 11.1208 15.3343 12.2164 14.7117 13.1482C14.089 14.0801 13.204 14.8064 12.1685 15.2353C11.1331 15.6642 9.99371 15.7764 8.89449 15.5578C7.79526 15.3391 6.78556 14.7994 5.99306 14.0069C5.20056 13.2144 4.66087 12.2047 4.44222 11.1055C4.22357 10.0063 4.33579 8.86691 4.76468 7.83146C5.19358 6.79601 5.91989 5.911 6.85177 5.28834C7.78365 4.66568 8.87924 4.33333 10 4.33333C11.5024 4.33488 12.9429 4.9324 14.0052 5.99477C15.0676 7.05714 15.6651 8.49758 15.6667 10ZM13.6667 10C13.6667 9.2748 13.4516 8.56589 13.0487 7.96291C12.6458 7.35993 12.0732 6.88996 11.4032 6.61244C10.7332 6.33492 9.99593 6.26231 9.28467 6.40379C8.57341 6.54527 7.92007 6.89448 7.40728 7.40728C6.89448 7.92007 6.54527 8.57341 6.40379 9.28467C6.26231 9.99593 6.33492 10.7332 6.61244 11.4032C6.88996 12.0732 7.35993 12.6458 7.96291 13.0487C8.56589 13.4516 9.2748 13.6667 10 13.6667C10.9721 13.6656 11.9041 13.2789 12.5915 12.5915C13.2789 11.9041 13.6656 10.9721 13.6667 10ZM3.62583 5.04083C3.71885 5.13385 3.82928 5.20764 3.95082 5.25798C4.07236 5.30832 4.20262 5.33424 4.33417 5.33424C4.46572 5.33424 4.59598 5.30832 4.71751 5.25798C4.83905 5.20764 4.94948 5.13385 5.0425 5.04083C5.13552 4.94781 5.20931 4.83738 5.25965 4.71585C5.30999 4.59431 5.3359 4.46405 5.3359 4.3325C5.3359 4.20095 5.30999 4.07069 5.25965 3.94915C5.20931 3.82762 5.13552 3.71719 5.0425 3.62417L4.0425 2.62417C3.85464 2.43631 3.59984 2.33077 3.33417 2.33077C3.06849 2.33077 2.81369 2.43631 2.62583 2.62417C2.43797 2.81203 2.33243 3.06682 2.33243 3.3325C2.33243 3.59818 2.43797 3.85297 2.62583 4.04083L3.62583 5.04083ZM3.62583 14.9575L2.62583 15.9575C2.53281 16.0505 2.45903 16.1609 2.40868 16.2825C2.35834 16.404 2.33243 16.5343 2.33243 16.6658C2.33243 16.7974 2.35834 16.9276 2.40868 17.0492C2.45903 17.1707 2.53281 17.2811 2.62583 17.3742C2.81369 17.562 3.06849 17.6676 3.33417 17.6676C3.46572 17.6676 3.59598 17.6417 3.71751 17.5913C3.83905 17.541 3.94948 17.4672 4.0425 17.3742L5.0425 16.3742C5.23036 16.1863 5.3359 15.9315 5.3359 15.6658C5.3359 15.4002 5.23036 15.1454 5.0425 14.9575C4.85464 14.7696 4.59984 14.6641 4.33417 14.6641C4.06849 14.6641 3.81369 14.7696 3.62583 14.9575ZM15.6667 5.33333C15.798 5.33344 15.9281 5.30766 16.0495 5.25747C16.1709 5.20728 16.2812 5.13367 16.3742 5.04083L17.3742 4.04083C17.4672 3.94781 17.541 3.83738 17.5913 3.71585C17.6417 3.59431 17.6676 3.46405 17.6676 3.3325C17.6676 3.20095 17.6417 3.07069 17.5913 2.94915C17.541 2.82762 17.4672 2.71719 17.3742 2.62417C17.2811 2.53115 17.1707 2.45736 17.0492 2.40702C16.9276 2.35668 16.7974 2.33077 16.6658 2.33077C16.5343 2.33077 16.404 2.35668 16.2825 2.40702C16.1609 2.45736 16.0505 2.53115 15.9575 2.62417L14.9575 3.62417C14.8168 3.76403 14.7209 3.94258 14.682 4.13711C14.643 4.33164 14.6629 4.53335 14.7389 4.71658C14.8149 4.89982 14.9437 5.0563 15.1089 5.16613C15.2741 5.27595 15.4683 5.33415 15.6667 5.33333ZM16.3742 14.9592C16.1863 14.7713 15.9315 14.6658 15.6658 14.6658C15.4002 14.6658 15.1454 14.7713 14.9575 14.9592C14.7696 15.147 14.6641 15.4018 14.6641 15.6675C14.6641 15.9332 14.7696 16.188 14.9575 16.3758L15.9575 17.3758C16.1454 17.5637 16.4002 17.6692 16.6658 17.6692C16.9315 17.6692 17.1863 17.5637 17.3742 17.3758C17.562 17.188 17.6676 16.9332 17.6676 16.6675C17.6676 16.4018 17.562 16.147 17.3742 15.9592L16.3742 14.9592ZM3.33333 10C3.33333 9.73478 3.22798 9.48043 3.04044 9.29289C2.8529 9.10536 2.59855 9 2.33333 9H1C0.734784 9 0.48043 9.10536 0.292893 9.29289C0.105357 9.48043 0 9.73478 0 10C0 10.2652 0.105357 10.5196 0.292893 10.7071C0.48043 10.8946 0.734784 11 1 11H2.33333C2.59855 11 2.8529 10.8946 3.04044 10.7071C3.22798 10.5196 3.33333 10.2652 3.33333 10ZM10 16.6667C9.73478 16.6667 9.48043 16.772 9.29289 16.9596C9.10536 17.1471 9 17.4015 9 17.6667V19C9 19.2652 9.10536 19.5196 9.29289 19.7071C9.48043 19.8946 9.73478 20 10 20C10.2652 20 10.5196 19.8946 10.7071 19.7071C10.8946 19.5196 11 19.2652 11 19V17.6667C11 17.4015 10.8946 17.1471 10.7071 16.9596C10.5196 16.772 10.2652 16.6667 10 16.6667ZM19 9H17.6667C17.4015 9 17.1471 9.10536 16.9596 9.29289C16.772 9.48043 16.6667 9.73478 16.6667 10C16.6667 10.2652 16.772 10.5196 16.9596 10.7071C17.1471 10.8946 17.4015 11 17.6667 11H19C19.2652 11 19.5196 10.8946 19.7071 10.7071C19.8946 10.5196 20 10.2652 20 10C20 9.73478 19.8946 9.48043 19.7071 9.29289C19.5196 9.10536 19.2652 9 19 9Z" fill="#010101"/>
</svg>
