<svg width="24" height="24" viewBox="0 0 24 24" fill="none" xmlns="http://www.w3.org/2000/svg">
<g clip-path="url(#clip0_226_705)">
<path d="M19.0001 5L13.9192 19.0701C13.8849 19.1449 13.8299 19.2083 13.7606 19.2528C13.6913 19.2972 13.6107 19.3209 13.5284 19.3209C13.4461 19.3209 13.3655 19.2972 13.2962 19.2528C13.2269 19.2083 13.1718 19.1449 13.1376 19.0701L10.4017 13.5984L4.93001 10.8625C4.85518 10.8282 4.79176 10.7732 4.7473 10.7039C4.70283 10.6346 4.6792 10.554 4.6792 10.4717C4.6792 10.3894 4.70283 10.3088 4.7473 10.2395C4.79176 10.1702 4.85518 10.1152 4.93001 10.0809L19.0001 5Z" stroke="#95A5B9" stroke-width="2" stroke-linecap="round" stroke-linejoin="round"/>
</g>
<defs>
<clipPath id="clip0_226_705">
<rect width="24" height="24" fill="white"/>
</clipPath>
</defs>
</svg>
