<svg width="24" height="24" viewBox="0 0 24 24" fill="none" xmlns="http://www.w3.org/2000/svg">
<g clip-path="url(#clip0_226_1161)">
<path d="M19 5L13.9191 19.0701C13.8848 19.1449 13.8297 19.2083 13.7605 19.2528C13.6912 19.2972 13.6106 19.3209 13.5283 19.3209C13.4459 19.3209 13.3654 19.2972 13.2961 19.2528C13.2268 19.2083 13.1717 19.1449 13.1374 19.0701L10.4016 13.5984L4.92989 10.8625C4.85505 10.8282 4.79164 10.7732 4.74717 10.7039C4.70271 10.6346 4.67908 10.554 4.67908 10.4717C4.67908 10.3894 4.70271 10.3088 4.74717 10.2395C4.79164 10.1702 4.85505 10.1152 4.92989 10.0809L19 5Z" stroke="black" stroke-width="2" stroke-linecap="round" stroke-linejoin="round"/>
</g>
<defs>
<clipPath id="clip0_226_1161">
<rect width="24" height="24" fill="white"/>
</clipPath>
</defs>
</svg>
