<svg width="20" height="20" viewBox="0 0 20 20" fill="none" xmlns="http://www.w3.org/2000/svg">
<path d="M19.65 0.241113C19.541 0.147574 19.4131 0.0786153 19.2751 0.0389286C19.137 -0.000758031 18.992 -0.0102406 18.85 0.0111263L5.85 2.01101C5.61326 2.04693 5.39727 2.16659 5.24128 2.34826C5.0853 2.52992 4.99969 2.76152 5 3.00096V13.3504C4.53277 13.1222 4.01999 13.0025 3.5 13.0004C2.80777 13.0004 2.13108 13.2057 1.55551 13.5902C0.979934 13.9748 0.53133 14.5214 0.266423 15.1609C0.00151648 15.8004 -0.0677952 16.5041 0.0672531 17.183C0.202301 17.8619 0.535644 18.4855 1.02513 18.9749C1.51461 19.4644 2.13825 19.7977 2.81719 19.9328C3.49612 20.0678 4.19985 19.9985 4.83939 19.7336C5.47893 19.4687 6.02556 19.0201 6.41014 18.4446C6.79473 17.869 7 17.1924 7 16.5002V8.86063L18 7.17072V11.3505C17.5328 11.1223 17.02 11.0026 16.5 11.0005C15.8078 11.0005 15.1311 11.2058 14.5555 11.5903C13.9799 11.9749 13.5313 12.5215 13.2664 13.161C13.0015 13.8005 12.9322 14.5042 13.0673 15.1831C13.2023 15.862 13.5356 16.4856 14.0251 16.975C14.5146 17.4645 15.1383 17.7978 15.8172 17.9329C16.4961 18.0679 17.1999 17.9986 17.8394 17.7337C18.4789 17.4688 19.0256 17.0202 19.4101 16.4447C19.7947 15.8692 20 15.1925 20 14.5003V1.00107C20 0.856638 19.9687 0.713917 19.9083 0.582728C19.8479 0.451539 19.7598 0.334994 19.65 0.241113ZM3.5 18.0001C3.20333 18.0001 2.91332 17.9121 2.66665 17.7473C2.41997 17.5825 2.22771 17.3483 2.11418 17.0742C2.00065 16.8001 1.97095 16.4985 2.02882 16.2076C2.0867 15.9166 2.22956 15.6494 2.43934 15.4396C2.64912 15.2298 2.91639 15.087 3.20737 15.0291C3.49834 14.9712 3.79994 15.0009 4.07403 15.1145C4.34811 15.228 4.58238 15.4202 4.74721 15.6669C4.91203 15.9135 5 16.2035 5 16.5002C5 16.898 4.84197 17.2795 4.56066 17.5608C4.27936 17.8421 3.89783 18.0001 3.5 18.0001ZM16.5 16.0002C16.2033 16.0002 15.9133 15.9123 15.6666 15.7474C15.42 15.5826 15.2277 15.3484 15.1142 15.0743C15.0007 14.8002 14.9709 14.4986 15.0288 14.2077C15.0867 13.9167 15.2296 13.6495 15.4393 13.4397C15.6491 13.2299 15.9164 13.0871 16.2074 13.0292C16.4983 12.9713 16.7999 13.001 17.074 13.1146C17.3481 13.2281 17.5824 13.4203 17.7472 13.667C17.912 13.9137 18 14.2037 18 14.5003C18 14.8981 17.842 15.2796 17.5607 15.5609C17.2794 15.8422 16.8978 16.0002 16.5 16.0002ZM18 5.14084L7 6.83074V3.83091L18 2.171V5.14084Z" fill="black"/>
</svg>
