<svg width="20" height="23" viewBox="0 0 20 23" fill="none" xmlns="http://www.w3.org/2000/svg">
<path d="M18 20.8235V19.1429C18 16.3583 15.4413 14.1008 12.2853 14.1008H7.71467C4.55867 14.1008 2 16.3583 2 19.1429V20.8235M14 6.03361C14 7.10339 13.5786 8.12936 12.8284 8.88581C12.0783 9.64226 11.0609 10.0672 10 10.0672C8.93913 10.0672 7.92172 9.64226 7.17157 8.88581C6.42143 8.12936 6 7.10339 6 6.03361C6 4.96383 6.42143 3.93787 7.17157 3.18142C7.92172 2.42497 8.93913 2 10 2C11.0609 2 12.0783 2.42497 12.8284 3.18142C13.5786 3.93787 14 4.96383 14 6.03361Z" stroke="black" stroke-width="2.5" stroke-linecap="round" stroke-linejoin="round"/>
</svg>
