<svg width="20" height="22" viewBox="0 0 20 22" fill="none" xmlns="http://www.w3.org/2000/svg">
<path d="M7.64228 1.31744C7.80207 0.92819 8.07615 0.59484 8.4294 0.360119C8.78265 0.125397 9.19897 0 9.625 0C10.051 0 10.4673 0.125397 10.8206 0.360119C11.1738 0.59484 11.4479 0.92819 11.6077 1.31744C13.1891 1.74611 14.5841 2.6746 15.5782 3.96031C16.5724 5.24603 17.1109 6.81787 17.111 8.43443V13.3853L19.0702 16.2819C19.1776 16.4406 19.2393 16.6251 19.2487 16.8157C19.2581 17.0063 19.2149 17.1959 19.1235 17.3641C19.0322 17.5324 18.8962 17.6731 18.7301 17.7711C18.564 17.8692 18.374 17.921 18.1804 17.9209H13.3306C13.2018 18.7991 12.7563 19.6021 12.0758 20.1829C11.3953 20.7637 10.5252 21.0833 9.625 21.0833C8.7248 21.0833 7.85473 20.7637 7.17419 20.1829C6.49365 19.6021 6.0482 18.7991 5.91944 17.9209H1.06959C0.875975 17.921 0.685987 17.8692 0.519892 17.7711C0.353797 17.6731 0.217827 17.5324 0.126487 17.3641C0.0351478 17.1959 -0.00813379 17.0063 0.00125962 16.8157C0.010653 16.6251 0.0723691 16.4406 0.179824 16.2819L2.13901 13.3853V8.43443C2.13901 5.03615 4.47036 2.17333 7.64228 1.31744ZM8.11283 17.9209C8.22328 18.2294 8.42808 18.4965 8.69901 18.6854C8.96994 18.8744 9.29365 18.9758 9.62553 18.9758C9.95742 18.9758 10.2811 18.8744 10.5521 18.6854C10.823 18.4965 11.0278 18.2294 11.1382 17.9209H8.11283ZM9.625 3.16415C8.20685 3.16415 6.84679 3.71941 5.84401 4.70778C4.84122 5.69615 4.27787 7.03666 4.27787 8.43443V13.7047C4.27791 13.9129 4.2154 14.1165 4.0982 14.2897L3.06834 15.8128H16.1806L15.1507 14.2897C15.0339 14.1164 14.9718 13.9128 14.9721 13.7047V8.43443C14.9721 7.03666 14.4088 5.69615 13.406 4.70778C12.4032 3.71941 11.0431 3.16415 9.625 3.16415Z" fill="black"/>
</svg>
