<svg width="20" height="18" viewBox="0 0 20 18" fill="none" xmlns="http://www.w3.org/2000/svg">
<path d="M12.6998 10.5C11.5998 8.504 11.2588 8 9.99977 8C8.74077 8 8.26377 8.755 7.16377 10.747C6.22177 12.45 4.31777 12.592 3.84277 14.038C3.74577 14.303 3.69777 14.715 3.69977 15C3.69977 16.176 4.48677 17 5.49977 17C6.75877 17 8.50377 16 9.99977 16C11.4958 16 13.2408 17 14.4998 17C15.5128 17 16.2998 16.177 16.2998 15C16.2998 14.715 16.2508 14.303 16.1538 14.038C15.6788 12.587 13.6418 12.203 12.6998 10.5Z" stroke="black" stroke-width="2" stroke-linecap="round" stroke-linejoin="round"/>
<path d="M18.1877 5.082C18.0592 5.0277 17.9212 4.99981 17.7817 5H17.7667C17.0317 5.012 16.2067 5.75 15.7737 6.866C15.2547 8.201 15.4937 9.566 16.3117 9.918C16.4407 9.973 16.5787 10 16.7177 10C17.4567 10 18.2927 9.258 18.7287 8.134C19.2447 6.799 19.0017 5.434 18.1887 5.082H18.1877Z" stroke="black" stroke-width="2" stroke-linecap="round" stroke-linejoin="round"/>
<path d="M7.47383 6C7.52883 6 7.58283 5.996 7.63683 5.989C8.58083 5.861 9.16983 4.643 8.95683 3.267C8.75383 1.97 7.90983 1 7.02483 1C6.96983 1 6.91583 1.004 6.86183 1.011C5.91783 1.139 5.32883 2.357 5.54183 3.733C5.74583 5.026 6.58983 6 7.47483 6H7.47383Z" stroke="black" stroke-width="2" stroke-linecap="round" stroke-linejoin="round"/>
<path d="M14.4557 3.733C14.6697 2.357 14.0807 1.139 13.1357 1.011C13.082 1.00357 13.0278 0.999894 12.9737 1C12.0887 1 11.2457 1.97 11.0437 3.267C10.8297 4.643 11.4187 5.861 12.3637 5.989C12.4177 5.996 12.4717 6 12.5257 6C13.4107 6 14.2557 5.026 14.4557 3.733V3.733Z" stroke="black" stroke-width="2" stroke-linecap="round" stroke-linejoin="round"/>
<path d="M3.68982 9.918C4.50582 9.566 4.74382 8.199 4.22582 6.866C3.78982 5.742 2.95482 5 2.21682 5C2.07682 5 1.93982 5.027 1.80982 5.082C0.993823 5.434 0.755823 6.801 1.27382 8.134C1.70982 9.258 2.54482 10 3.28282 10C3.42282 10 3.55982 9.973 3.68982 9.918Z" stroke="black" stroke-width="2" stroke-linecap="round" stroke-linejoin="round"/>
</svg>
