<svg width="20" height="19" viewBox="0 0 20 19" fill="none" xmlns="http://www.w3.org/2000/svg">
<path d="M7.85628 1.91454V14.6142C7.85628 14.7021 7.84079 14.7892 7.81056 14.8714L12.1423 17.0869V4.10666L7.85628 1.91454ZM6.4276 1.85608L1.42724 4.13004V17.1454L6.46618 14.8539C6.44034 14.7768 6.4273 14.6957 6.4276 14.6142V1.85608ZM6.81906 0.0790055C6.92376 0.0246944 7.03993 -0.00238431 7.1573 0.000164664C7.27467 0.00271364 7.38961 0.0348117 7.49196 0.0936196L12.8752 2.84692L18.9956 0.0643914C19.1044 0.0149641 19.2235 -0.00588181 19.3422 0.0037472C19.4608 0.0133762 19.5752 0.0531751 19.675 0.119528C19.7748 0.185881 19.8568 0.276686 19.9135 0.383692C19.9703 0.490698 20 0.610515 20 0.732257V15.3464C20 15.4878 19.9599 15.6261 19.8846 15.7447C19.8093 15.8632 19.702 15.9568 19.5757 16.0142L13.1467 18.9371C13.0502 18.9809 12.9455 19.0023 12.84 18.9997C12.7346 18.9972 12.6309 18.9708 12.5366 18.9225L7.12337 16.1545L1.00436 18.9371C0.895593 18.9865 0.776479 19.0073 0.657837 18.9977C0.539195 18.9881 0.424785 18.9483 0.325002 18.8819C0.225218 18.8156 0.143222 18.7248 0.0864643 18.6178C0.0297063 18.5108 -1.51004e-05 18.3909 5.75597e-09 18.2692V3.65508C-1.75361e-05 3.5137 0.0400606 3.37535 0.115376 3.25681C0.190691 3.13826 0.298008 3.04462 0.424316 2.98722L6.81906 0.0790055ZM13.571 4.13004V17.1454L18.5713 14.8714V1.85754L13.571 4.13004Z" fill="black"/>
</svg>
