<svg width="17" height="21" viewBox="0 0 17 21" fill="none" xmlns="http://www.w3.org/2000/svg">
<path d="M8.5 21C6.03854 20.3875 4.00633 18.9917 2.40338 16.8126C0.800417 14.6335 -0.000707864 12.2143 4.69302e-07 9.555V3.15L8.5 0L17 3.15V9.555C17 12.215 16.1989 14.6346 14.5966 16.8137C12.9944 18.9928 10.9622 20.3882 8.5 21ZM8.5 18.795C10.2177 18.27 11.6521 17.233 12.8031 15.6838C13.9542 14.1347 14.6271 12.4068 14.8219 10.5H8.5V2.23125L2.125 4.59375V10.0275C2.125 10.15 2.14271 10.3075 2.17813 10.5H8.5V18.795Z" fill="black"/>
</svg>
