<svg width="23" height="20" viewBox="0 0 23 20" fill="none" xmlns="http://www.w3.org/2000/svg">
<path d="M21.8486 7.95348C21.885 7.88949 21.9107 7.81995 21.9245 7.74765L22.737 3.41432C22.7887 3.127 22.7242 2.83091 22.5576 2.59117C22.391 2.35144 22.136 2.1877 21.8486 2.13599C21.5613 2.08427 21.2652 2.14881 21.0255 2.3154C20.7858 2.482 20.622 2.737 20.5703 3.02432L20.1695 5.19099C19.2677 3.54423 17.9201 2.18496 16.2812 1.26909C14.6422 0.353207 12.7783 -0.0822011 10.9032 0.012797C9.02817 0.107795 7.21782 0.729353 5.67984 1.80619C4.14186 2.88302 2.93851 4.37152 2.20781 6.10098C2.10063 6.3668 2.10315 6.66426 2.21483 6.92823C2.3265 7.19219 2.53823 7.40114 2.80365 7.50932C2.93587 7.56407 3.07764 7.59207 3.22075 7.59172C3.36386 7.59136 3.50549 7.56266 3.63744 7.50726C3.7694 7.45185 3.88907 7.37086 3.98954 7.26894C4.09001 7.16703 4.1693 7.04622 4.22281 6.91348C4.80623 5.48002 5.80964 4.25658 7.1012 3.40391C8.39277 2.55125 9.91207 2.10925 11.4595 2.13599C12.828 2.1296 14.174 2.48492 15.3611 3.16598C16.5482 3.84703 17.5343 4.82964 18.2195 6.01432L16.432 5.72182C16.2897 5.69906 16.1444 5.70454 16.0042 5.73795C15.8641 5.77136 15.7319 5.83205 15.6152 5.91655C15.4985 6.00106 15.3996 6.10771 15.3241 6.23044C15.2486 6.35316 15.1981 6.48955 15.1753 6.63182C15.1526 6.77408 15.158 6.91944 15.1914 7.05959C15.2249 7.19973 15.2855 7.33193 15.37 7.44862C15.4545 7.56531 15.5612 7.66422 15.6839 7.73969C15.8067 7.81516 15.943 7.86572 16.0853 7.88848L20.6895 8.65765H20.8628C20.9886 8.65916 21.1135 8.63712 21.2311 8.59265C21.2708 8.57759 21.3075 8.55558 21.3395 8.52765C21.4172 8.49877 21.4902 8.45862 21.5561 8.40848L21.6428 8.30015C21.699 8.24755 21.7498 8.18949 21.7945 8.12682C21.8208 8.07197 21.8391 8.01358 21.8486 7.95348ZM19.9203 11.9618C19.7874 11.9074 19.645 11.8799 19.5014 11.881C19.3578 11.8821 19.2158 11.9117 19.0838 11.9681C18.9517 12.0246 18.8322 12.1067 18.7322 12.2098C18.6321 12.3129 18.5536 12.4348 18.5011 12.5685C17.9136 13.9869 16.914 15.1963 15.6316 16.0403C14.3491 16.8844 12.8429 17.3241 11.3078 17.3027C9.93925 17.309 8.59329 16.9537 7.4062 16.2727C6.21912 15.5916 5.23304 14.609 4.54781 13.4243L6.33531 13.7168H6.50865C6.79596 13.7398 7.08065 13.6477 7.30006 13.4608C7.51948 13.2739 7.65566 13.0075 7.67865 12.7202C7.70163 12.4328 7.60954 12.1482 7.42263 11.9287C7.23572 11.7093 6.9693 11.5731 6.68198 11.5502L2.07781 10.8027C1.95964 10.7809 1.83848 10.7809 1.72031 10.8027H1.63365C1.51104 10.8353 1.39414 10.8864 1.28698 10.9543C1.21394 11.0107 1.14841 11.0763 1.09198 11.1493L0.99448 11.2577C0.960995 11.323 0.935533 11.3921 0.918647 11.4635C0.880683 11.5188 0.854841 11.5816 0.842814 11.6477L0.0303138 15.981C-0.0044814 16.125 -0.00938086 16.2745 0.0159182 16.4205C0.0412172 16.5664 0.0961772 16.7057 0.177402 16.8295C0.258627 16.9534 0.36439 17.0593 0.488157 17.1407C0.611924 17.222 0.751064 17.2772 0.89698 17.3027H1.09198C1.3485 17.3068 1.59818 17.2198 1.79657 17.0572C1.99495 16.8945 2.12917 16.6667 2.17531 16.4143L2.57615 14.2477C3.47696 15.8948 4.82375 17.2547 6.46207 18.1715C8.1004 19.0883 9.96393 19.5247 11.839 19.4309C13.714 19.337 15.5246 18.7166 17.0632 17.6408C18.6018 16.565 19.806 15.0774 20.5378 13.3485C20.6371 13.0825 20.628 12.7882 20.5125 12.5289C20.397 12.2696 20.1844 12.066 19.9203 11.9618Z" fill="black"/>
</svg>
