<svg width="25" height="25" viewBox="0 0 25 25" fill="none" xmlns="http://www.w3.org/2000/svg">
<path d="M2.80664 10.8509C8.49818 10.7837 11.5452 10.5376 13.5038 10.0735" stroke="black" stroke-width="2" stroke-linecap="round"/>
<path d="M18.0374 11.3127H22.4989V13.9281C20.4624 13.7381 19.4992 13.1241 18.0374 11.3127Z" fill="black"/>
<path d="M3.65283 6.69728C10.8437 6.69728 14.462 7.76084 17.2682 8.73511M20.7298 18.8511C22.4446 17.9496 23.2211 17.237 23.2682 14.4665C22.6632 13.4512 22.295 12.8756 22.7298 12.0819V10.2357C20.7069 10.0179 19.175 9.39711 17.2682 8.73511M17.2682 8.73511C18.5694 6.74326 19.3925 5.64207 21.4221 3.77417C22.3539 4.46714 22.8762 4.8543 23.8067 5.23571M3.80668 19.0049H9.96052" stroke="black" stroke-width="2" stroke-linecap="round"/>
<circle cx="15.6527" cy="18.5431" r="2.53846" stroke="black" stroke-width="2" stroke-linecap="round"/>
</svg>
