<svg width="21" height="20" viewBox="0 0 21 20" fill="none" xmlns="http://www.w3.org/2000/svg">
<path d="M11.5478 4.09636C14.8757 4.09636 16.7636 6.24606 17.0383 8.8416H17.1223C19.2639 8.8416 21 10.5316 21 12.6158C21 14.6999 19.2639 16.3899 17.1223 16.3899H16.218L16.197 16.4386L16.1623 16.5042L14.3243 19.6111C14.2239 19.7836 14.059 19.9115 13.8641 19.9681C13.6693 20.0246 13.4596 20.0055 13.2789 19.9147C13.0981 19.824 12.9604 19.6685 12.8944 19.4809C12.8284 19.2933 12.8393 19.088 12.9248 18.9081L12.96 18.8425L14.4104 16.3899H12.1549L12.1339 16.4386L12.0992 16.5042L10.2612 19.6111C10.16 19.7822 9.99526 19.9086 9.8011 19.9643C9.60693 20.02 9.39826 20.0006 9.21834 19.9102C9.03843 19.8198 8.90107 19.6652 8.83477 19.4787C8.76846 19.2921 8.77828 19.0878 8.8622 18.9081L8.89686 18.8425L10.3473 16.3899H8.09233L8.07133 16.4386L8.03667 16.5042L6.19864 19.6111C6.09746 19.7822 5.9327 19.9086 5.73854 19.9643C5.54437 20.02 5.3357 20.0006 5.15578 19.9102C4.97586 19.8198 4.83851 19.6652 4.77221 19.4787C4.7059 19.2921 4.71572 19.0878 4.79964 18.9081L4.8343 18.8425L6.28477 16.3899H5.97388C3.83179 16.3899 2.09565 14.7004 2.09565 12.6158C2.09565 10.5311 3.83179 8.8416 5.97388 8.8416H6.0579C6.33361 6.22864 8.22047 4.09636 11.5478 4.09636ZM11.5473 5.37491C9.31016 5.37491 7.35922 7.14182 7.35922 9.58208C7.35922 9.96897 7.01473 10.2729 6.62034 10.2729H5.87463C4.51186 10.2729 3.40747 11.3556 3.40747 12.6916C3.40747 14.028 4.51186 15.1114 5.8741 15.1114H17.2205C18.5827 15.1114 19.6871 14.028 19.6871 12.6921C19.6871 11.3562 18.5827 10.2723 17.2205 10.2723H16.4748C16.0799 10.2723 15.7354 9.96897 15.7354 9.58259C15.7354 7.11056 13.785 5.37542 11.5473 5.37542M2.46745 8.35119C2.52924 8.49691 2.53348 8.6598 2.47936 8.8084C2.42524 8.957 2.31659 9.08074 2.17442 9.15572L2.11403 9.18391L0.899879 9.67688C0.745428 9.73818 0.572802 9.73953 0.417363 9.68066C0.261923 9.62179 0.135436 9.50715 0.0638094 9.36022C-0.00781668 9.21329 -0.0191597 9.0452 0.0321039 8.89038C0.0833675 8.73556 0.193358 8.60572 0.339543 8.52747L0.399935 8.49928L1.61408 8.00631C1.77412 7.94166 1.95391 7.94167 2.11394 8.00635C2.27396 8.07102 2.40112 8.19506 2.46745 8.35119ZM9.2944 3.41122L9.26237 3.42096C8.7766 3.57572 8.32498 3.78069 7.91221 4.03077C7.34821 3.79789 6.72296 3.74598 6.12675 3.88252C5.53054 4.01905 4.99423 4.33698 4.59529 4.79037C4.19634 5.24377 3.95541 5.80917 3.90728 6.40491C3.85915 7.00065 4.00632 7.59591 4.32753 8.1047C3.93242 8.24263 3.55717 8.42968 3.21106 8.66122C2.72789 7.85374 2.54674 6.90772 2.69851 5.98447C2.85028 5.06123 3.32557 4.21796 4.04332 3.59847C4.76108 2.97898 5.67684 2.62164 6.63442 2.5874C7.59201 2.55316 8.53211 2.84414 9.2944 3.41071M0.824257 3.50244L0.890951 3.52601L2.1093 4.03282C2.43962 4.16913 2.59821 4.5427 2.46325 4.86708C2.33721 5.17044 2.00007 5.32315 1.68603 5.23142L1.61986 5.20836L0.402036 4.70104C0.242918 4.6348 0.116713 4.51039 0.0504558 4.35445C-0.0158014 4.19851 -0.0168409 4.02346 0.04756 3.86678C0.173596 3.56393 0.510742 3.41071 0.824257 3.50244ZM4.69461 0.338602L4.7235 0.398046L5.22764 1.57974C5.2922 1.7315 5.29453 1.90166 5.23414 2.05504C5.17376 2.20843 5.05528 2.3333 4.9032 2.40385C4.75113 2.47439 4.57709 2.48522 4.41706 2.43408C4.25704 2.38294 4.12328 2.27375 4.04343 2.12908L4.01454 2.07015L3.5104 0.888455C3.44508 0.736585 3.44222 0.565999 3.50241 0.412124C3.5626 0.258249 3.68122 0.132911 3.83363 0.062143C3.98605 -0.00862533 4.16054 -0.0193858 4.32087 0.0320962C4.4812 0.0835781 4.61505 0.193346 4.69461 0.338602ZM9.44617 0.0516334C9.76231 0.179745 9.92353 0.517958 9.82953 0.831062L9.80537 0.897679L9.28495 2.064C9.21896 2.21555 9.0963 2.33689 8.94191 2.40335C8.78752 2.4698 8.61298 2.47638 8.4538 2.42175C8.29461 2.36713 8.16272 2.25539 8.08494 2.10926C8.00716 1.96313 7.98934 1.79358 8.03509 1.63509L8.05873 1.56847L8.57915 0.402146C8.64653 0.243503 8.77571 0.117463 8.93829 0.0517348C9.10088 -0.0139935 9.28356 -0.01403 9.44617 0.0516334Z" fill="black"/>
</svg>
